<?xml version="1.0" encoding="utf-8"?>
<!-- Generator: Adobe Illustrator 24.0.1, SVG Export Plug-In . SVG Version: 6.00 Build 0)  -->
<svg version="1.1" id="Capa_1" xmlns="http://www.w3.org/2000/svg" xmlns:xlink="http://www.w3.org/1999/xlink" x="0px" y="0px"
	 viewBox="0 0 1500 1500" style="enable-background:new 0 0 1500 1500;" xml:space="preserve">
<style type="text/css">
	.st0{fill:#00CCA3;}
	.st1{fill:#FFFFFF;}
</style>
<path class="st0" d="M-32.7,0H1046c250.7,0,454,153.5,454,342.8v814.5c0,189.3-203.3,342.8-454,342.8H-32.7
	c-250.7,0-454-153.5-454-342.8V342.8C-486.6,153.5-283.4,0-32.7,0z"/>
<g>
	<g>
		<g>
			<g>
				<path class="st1" d="M537.6,1126.9c-31.9,0-63.6-12.1-88-36.3c-23.6-23.6-36.5-54.7-36.5-88s12.9-64.4,36.5-88l455.9-455.9
					c48.6-48.6,127.5-48.6,175.8,0c48.6,48.6,48.6,127.5,0,175.8l-455.9,455.9C601.4,1114.8,569.5,1126.9,537.6,1126.9z
					 M993.5,461.9c-21.8,0-43.4,8.3-60.1,24.8L477.5,942.6c-16.1,16.1-25,37.5-25,60.1c0,22.6,8.9,44,25,60.1
					c33.1,33.1,87,33.1,120.1,0l455.9-455.9c33.1-33.1,33.1-87,0-120.1C1036.9,470.2,1015.3,461.9,993.5,461.9z"/>
			</g>
		</g>
		<g>
			<path class="st1" d="M927.1,1094L446.2,613.1c-43-43-43-113,0-156.2l0,0c43-43,113-43,156.2,0L1083.1,938c43,43,43,113,0,156.2
				l0,0C1040.1,1137.2,970.1,1137.2,927.1,1094z"/>
		</g>
	</g>
</g>
<circle class="st0" cx="529.5" cy="541.9" r="71.6"/>
<path class="st1" d="M507.3,620c6.9,2.4,14.5,3.6,22.2,3.6c7.5,0,14.9-1.2,21.6-3.4V461.9c-6.7-2.2-14.1-3.4-21.6-3.4
	c-7.7,0-15.3,1.2-22.2,3.6V620z"/>
</svg>
