<?xml version="1.0" encoding="utf-8"?>
<!-- Generator: Adobe Illustrator 24.0.1, SVG Export Plug-In . SVG Version: 6.00 Build 0)  -->
<svg version="1.1" id="Capa_1" xmlns="http://www.w3.org/2000/svg" xmlns:xlink="http://www.w3.org/1999/xlink" x="0px" y="0px"
	 viewBox="0 0 1500 1500" style="enable-background:new 0 0 1500 1500;" xml:space="preserve">
<style type="text/css">
	.st0{fill:#00CCA3;}
	.st1{fill:#FFFFFF;}
</style>
<rect x="367.7" y="338" class="st0" width="679.4" height="786"/>
<g>
	<g>
		<g>
			<g>
				<path class="st1" d="M596.8,915.4c-16.1,0-32.1-6.1-44.4-18.3c-11.9-11.9-18.4-27.6-18.4-44.4s6.5-32.5,18.4-44.4l230-230
					c24.5-24.5,64.3-24.5,88.7,0c24.5,24.5,24.5,64.3,0,88.7l-230,230C629,909.3,612.9,915.4,596.8,915.4z M826.8,579.9
					c-11,0-21.9,4.2-30.3,12.5l-230,230c-8.1,8.1-12.6,18.9-12.6,30.3c0,11.4,4.5,22.2,12.6,30.3c16.7,16.7,43.9,16.7,60.6,0
					l230-230c16.7-16.7,16.7-43.9,0-60.6C848.7,584.1,837.8,579.9,826.8,579.9z"/>
			</g>
		</g>
		<g>
			<path class="st1" d="M793.3,898.8L550.7,656.2c-21.7-21.7-21.7-57,0-78.8l0,0c21.7-21.7,57-21.7,78.8,0L872,820.1
				c21.7,21.7,21.7,57,0,78.8l0,0C850.3,920.6,815,920.6,793.3,898.8z"/>
		</g>
	</g>
</g>
<circle class="st0" cx="592.7" cy="620.3" r="36.1"/>
<path class="st1" d="M581.5,659.7c3.5,1.2,7.3,1.8,11.2,1.8c3.8,0,7.5-0.6,10.9-1.7v-79.9c-3.4-1.1-7.1-1.7-10.9-1.7
	c-3.9,0-7.7,0.6-11.2,1.8V659.7z"/>
</svg>
